<svg width="418" height="96" viewBox="0 0 418 96" fill="none" xmlns="http://www.w3.org/2000/svg">
<path opacity="0.25" d="M83.4782 7.87628C98.6921 10.8716 109.79 16.6922 116.728 23.3626C114.734 16.2037 109.79 9.87315 101.175 5.32709C82.2263 -4.6785 54.5569 0.972211 36.2026 9.46953C36.9877 9.27834 37.794 9.08715 38.6004 8.9172C50.3556 5.11465 65.5483 4.3499 83.4782 7.87628Z" fill="#196CBD"/>
<path opacity="0.25" d="M11.8222 67.9098C11.2918 67.4424 10.8037 66.9538 10.4006 66.4864C8.10895 63.8735 6.26291 61.3456 4.77759 58.9026C6.66606 71.4786 15.0475 81.4842 23.1955 87.7935C34.3991 96.4607 51.162 97.3105 68.328 90.3852C48.3611 88.537 32.4894 83.0562 22.9621 76.9169C18.2303 73.8579 14.5807 70.8626 11.8222 67.9098Z" fill="#196CBD"/>
<path opacity="0.25" d="M4.88364 47.7499C4.94729 47.4312 4.98973 47.0914 5.05339 46.7727C5.05339 46.7302 5.07461 46.6665 5.07461 46.624C5.13826 46.3266 5.20192 46.0292 5.26558 45.7318C5.2868 45.6468 5.30801 45.5406 5.32923 45.4556C5.37167 45.2644 5.41411 45.0945 5.45655 44.9033C7.89671 34.8127 14.0714 26.2729 19.8429 20.1761C20.1188 19.8787 20.4158 19.5813 20.7341 19.2626C23.8957 16.1399 27.8212 13.4632 32.4257 11.3177C33.6352 10.6804 34.9083 10.0643 36.2239 9.44824C26.9937 11.7213 19.1003 15.3751 13.3075 19.8999C2.88907 28.0361 -5.72578 41.4831 4.77754 58.8814C4.24707 55.3762 4.22585 51.6374 4.88364 47.7499Z" fill="#196CBD"/>
<path opacity="0.25" d="M126.277 52.9547C125.852 50.3842 125.279 47.9625 124.558 45.6895C123.242 49.3221 120.441 52.4873 116.134 54.7179C102.681 61.6857 104.994 66.9965 109.408 70.6716C111.805 72.6684 113.1 74.814 113.375 76.9383C124.897 68.8234 127.55 60.666 126.277 52.9547Z" fill="#196CBD"/>
<path d="M73.0747 88.1903C71.3772 89.0188 69.7009 89.7836 68.0034 90.4634C71.8865 90.8245 75.918 91.0369 80.0982 91.1007C102.378 91.4405 113.985 84.3453 113.072 76.9951C109.55 79.4593 105.221 81.9236 99.8953 84.3878C92.8294 87.638 83.2598 88.6364 73.0747 88.1903Z" fill="#196CBD"/>
<path d="M117.768 32.0511C120.59 35.9386 122.924 40.4634 124.558 45.6892C126.956 39.0189 124.346 30.6915 116.728 23.3625C117.513 26.1454 117.832 29.0557 117.768 32.0511Z" fill="#196CBD"/>
<path opacity="0.6" d="M16.066 71.6062C14.7717 70.3741 13.1803 69.142 11.8223 67.9099C14.5595 70.8627 18.2091 73.858 22.9622 76.9171C32.4894 83.0564 48.3823 88.5371 68.328 90.3853C70.0255 89.7055 71.7018 88.9408 73.3993 88.1123C49.9313 87.0926 23.1743 78.3829 16.066 71.6062Z" fill="#196CBD"/>
<path opacity="0.6" d="M38.5791 8.91716C51.3316 6.17678 66.397 6.02808 81.8019 9.80938C92.8357 12.5285 108.092 18.6678 117.768 32.0511C117.853 29.077 117.513 26.1455 116.728 23.3626C109.79 16.6922 98.6921 10.8503 83.4782 7.87624C65.5482 4.34986 50.3556 5.11462 38.5791 8.91716Z" fill="#196CBD"/>
<path opacity="0.8" d="M109.429 70.6501C104.994 66.975 102.702 61.6642 116.155 54.6964C120.463 52.4658 123.263 49.3218 124.579 45.668C122.945 40.4421 120.611 35.9386 117.789 32.0298C117.556 41.5468 113.185 51.8073 105.991 60.9631C96.2094 73.433 84.8361 82.4826 73.4204 88.1121C83.6054 88.5582 93.1751 87.5385 100.241 84.2883C105.546 81.8453 109.896 79.3811 113.418 76.8956C113.121 74.7925 111.826 72.647 109.429 70.6501Z" fill="#196CBD"/>
<path d="M81.8019 9.80939C66.397 6.02808 51.3529 6.17679 38.5791 8.91717C36.3936 9.6182 34.3354 10.4254 32.4045 11.3389C27.4393 13.9306 23.4077 16.671 20.7129 19.2839C20.4158 19.5813 20.1188 19.8787 19.8217 20.1974C11.7373 28.9496 7.30258 37.2557 5.43532 44.9245C5.39288 45.1157 5.35044 45.2857 5.30801 45.4769C5.28679 45.5618 5.26557 45.6681 5.24435 45.753C5.18069 46.0504 5.11704 46.3478 5.05338 46.6453C5.05338 46.6877 5.03216 46.7302 5.03216 46.794C4.9685 47.1126 4.90485 47.4525 4.86241 47.7711C4.31072 51.1063 3.44075 56.056 4.75632 58.9026C5.85969 61.2819 8.6818 64.5746 11.801 67.931C13.159 69.1631 14.7504 70.3952 16.0447 71.6274C23.153 78.3827 49.91 87.1137 73.378 88.1334C84.7938 82.5252 96.1671 73.4543 105.949 60.9845C113.121 51.8286 117.492 41.5893 117.747 32.0511C108.092 18.6678 92.8357 12.5285 81.8019 9.80939Z" fill="#196CBD"/>
<path d="M83.7017 60.6326L85.4496 64.6525C86.0164 65.9767 85.4496 67.5374 84.1269 68.1049L56.9174 80.1173C55.5947 80.6848 54.0358 80.1173 53.469 78.7931L37.2189 41.9045C36.652 40.5803 37.2189 39.0196 38.5416 38.4521L45.7691 35.2834L58.8542 64.9362C60.2241 68.0576 63.8615 69.4291 66.932 68.0576L83.7017 60.6326Z" fill="white"/>
<path d="M67.6877 27.5746L62.8221 16.6025L46.6665 23.7438C45.58 24.2167 45.1076 25.4464 45.58 26.5341L62.1136 64.0375C62.5859 65.1253 63.8614 65.5982 64.9006 65.1253H64.9479L92.0629 53.1601C93.1494 52.6872 93.6217 51.4576 93.1494 50.3698L81.4814 23.7911L70.522 28.6623C69.4356 29.1352 68.1601 28.615 67.6877 27.5746ZM80.7728 45.7824L67.2153 51.7886C66.6957 52.0251 66.0344 51.7886 65.7982 51.2211L65.5147 50.559C65.2785 50.0388 65.5147 49.3767 66.0344 49.1402L79.5919 43.134C80.1115 42.8975 80.7728 43.134 81.009 43.7015L81.2925 44.3636C81.5759 44.9311 81.2925 45.5459 80.7728 45.7824ZM78.5054 40.5802L64.9479 46.5864C64.4283 46.8228 63.7669 46.5864 63.5307 46.0189L63.2473 45.3568C63.0111 44.8365 63.2473 44.1744 63.7669 43.938L77.3244 37.9317C77.844 37.6953 78.5054 37.9317 78.7416 38.4993L79.025 39.1614C79.2612 39.6816 79.025 40.3437 78.5054 40.5802ZM76.4741 33.4389L76.7575 34.0537C76.9937 34.5739 76.7575 35.236 76.2379 35.4725L62.6804 41.4787C62.1608 41.7152 61.4995 41.4787 61.2633 40.9585L60.9798 40.3437C60.7436 39.7762 60.9798 39.1614 61.4995 38.9249L75.057 32.9187C75.6238 32.6349 76.2379 32.8714 76.4741 33.4389ZM80.1115 20.717L80.3477 21.19L70.0497 25.7301L65.5147 15.4202L65.9871 15.1838C66.5068 14.9473 67.0736 14.9473 67.5932 15.1365L78.9778 19.5347C79.4501 19.7712 79.8753 20.1968 80.1115 20.717Z" fill="white"/>
<path d="M156.938 42.4912V47H154.301V34.2031H159.293C160.254 34.2031 161.098 34.3789 161.824 34.7305C162.557 35.082 163.119 35.583 163.512 36.2334C163.904 36.8779 164.101 37.6133 164.101 38.4395C164.101 39.6934 163.67 40.6836 162.809 41.4102C161.953 42.1309 160.767 42.4912 159.249 42.4912H156.938ZM156.938 40.3555H159.293C159.99 40.3555 160.521 40.1914 160.884 39.8633C161.253 39.5352 161.438 39.0664 161.438 38.457C161.438 37.8301 161.253 37.3232 160.884 36.9365C160.515 36.5498 160.005 36.3506 159.354 36.3389H156.938V40.3555ZM171.158 47C171.041 46.7715 170.956 46.4873 170.903 46.1475C170.288 46.833 169.488 47.1758 168.504 47.1758C167.572 47.1758 166.799 46.9062 166.184 46.3672C165.574 45.8281 165.27 45.1484 165.27 44.3281C165.27 43.3203 165.642 42.5469 166.386 42.0078C167.136 41.4688 168.217 41.1963 169.629 41.1904H170.798V40.6455C170.798 40.2061 170.684 39.8545 170.455 39.5908C170.232 39.3271 169.878 39.1953 169.392 39.1953C168.964 39.1953 168.627 39.2979 168.381 39.5029C168.141 39.708 168.021 39.9893 168.021 40.3467H165.48C165.48 39.7959 165.65 39.2861 165.99 38.8174C166.33 38.3486 166.811 37.9824 167.432 37.7188C168.053 37.4492 168.75 37.3145 169.523 37.3145C170.695 37.3145 171.624 37.6104 172.31 38.2021C173.001 38.7881 173.347 39.6143 173.347 40.6807V44.8027C173.353 45.7051 173.479 46.3877 173.725 46.8506V47H171.158ZM169.058 45.2334C169.433 45.2334 169.778 45.1514 170.095 44.9873C170.411 44.8174 170.646 44.5918 170.798 44.3105V42.6758H169.849C168.577 42.6758 167.9 43.1152 167.818 43.9941L167.81 44.1436C167.81 44.46 167.921 44.7207 168.144 44.9258C168.366 45.1309 168.671 45.2334 169.058 45.2334ZM177.979 47H175.43V37.4902H177.979V47ZM175.28 35.0293C175.28 34.6484 175.406 34.335 175.658 34.0889C175.916 33.8428 176.265 33.7197 176.704 33.7197C177.138 33.7197 177.483 33.8428 177.741 34.0889C177.999 34.335 178.128 34.6484 178.128 35.0293C178.128 35.416 177.996 35.7324 177.732 35.9785C177.475 36.2246 177.132 36.3477 176.704 36.3477C176.276 36.3477 175.931 36.2246 175.667 35.9785C175.409 35.7324 175.28 35.416 175.28 35.0293ZM182.417 37.4902L182.496 38.5889C183.176 37.7393 184.087 37.3145 185.229 37.3145C186.237 37.3145 186.987 37.6104 187.479 38.2021C187.972 38.7939 188.224 39.6787 188.235 40.8564V47H185.695V40.918C185.695 40.3789 185.578 39.9893 185.344 39.749C185.109 39.5029 184.72 39.3799 184.175 39.3799C183.46 39.3799 182.924 39.6846 182.566 40.2939V47H180.026V37.4902H182.417ZM194.546 47.1758C193.151 47.1758 192.015 46.748 191.136 45.8926C190.263 45.0371 189.826 43.8975 189.826 42.4736V42.2275C189.826 41.2725 190.011 40.4199 190.38 39.6699C190.749 38.9141 191.271 38.334 191.944 37.9297C192.624 37.5195 193.397 37.3145 194.265 37.3145C195.565 37.3145 196.588 37.7246 197.332 38.5449C198.082 39.3652 198.457 40.5283 198.457 42.0342V43.0713H192.401C192.483 43.6924 192.729 44.1904 193.14 44.5654C193.556 44.9404 194.08 45.1279 194.713 45.1279C195.691 45.1279 196.456 44.7734 197.007 44.0645L198.255 45.4619C197.874 46.001 197.358 46.4229 196.708 46.7275C196.058 47.0264 195.337 47.1758 194.546 47.1758ZM194.256 39.3711C193.752 39.3711 193.342 39.541 193.025 39.8809C192.715 40.2207 192.516 40.707 192.428 41.3398H195.961V41.1377C195.949 40.5752 195.797 40.1416 195.504 39.8369C195.211 39.5264 194.795 39.3711 194.256 39.3711ZM202.588 47H200.039V33.5H202.588V47ZM208.802 42.1748C208.802 40.7158 209.147 39.541 209.839 38.6504C210.536 37.7598 211.474 37.3145 212.651 37.3145C213.694 37.3145 214.506 37.6719 215.086 38.3867L215.191 37.4902H217.494V46.6836C217.494 47.5156 217.304 48.2393 216.923 48.8545C216.548 49.4697 216.018 49.9385 215.332 50.2607C214.646 50.583 213.844 50.7441 212.924 50.7441C212.227 50.7441 211.547 50.6035 210.885 50.3223C210.223 50.0469 209.722 49.6895 209.382 49.25L210.507 47.7031C211.14 48.4121 211.907 48.7666 212.81 48.7666C213.483 48.7666 214.008 48.585 214.383 48.2217C214.758 47.8643 214.945 47.3545 214.945 46.6924V46.1826C214.359 46.8447 213.589 47.1758 212.634 47.1758C211.491 47.1758 210.565 46.7305 209.856 45.8398C209.153 44.9434 208.802 43.7568 208.802 42.2803V42.1748ZM211.342 42.3594C211.342 43.2207 211.515 43.8975 211.86 44.3896C212.206 44.876 212.681 45.1191 213.284 45.1191C214.058 45.1191 214.611 44.8291 214.945 44.249V40.25C214.605 39.6699 214.058 39.3799 213.302 39.3799C212.692 39.3799 212.212 39.6289 211.86 40.127C211.515 40.625 211.342 41.3691 211.342 42.3594ZM223.831 47.1758C222.437 47.1758 221.3 46.748 220.421 45.8926C219.548 45.0371 219.111 43.8975 219.111 42.4736V42.2275C219.111 41.2725 219.296 40.4199 219.665 39.6699C220.034 38.9141 220.556 38.334 221.229 37.9297C221.909 37.5195 222.683 37.3145 223.55 37.3145C224.851 37.3145 225.873 37.7246 226.617 38.5449C227.367 39.3652 227.742 40.5283 227.742 42.0342V43.0713H221.687C221.769 43.6924 222.015 44.1904 222.425 44.5654C222.841 44.9404 223.365 45.1279 223.998 45.1279C224.977 45.1279 225.741 44.7734 226.292 44.0645L227.54 45.4619C227.159 46.001 226.644 46.4229 225.993 46.7275C225.343 47.0264 224.622 47.1758 223.831 47.1758ZM223.541 39.3711C223.037 39.3711 222.627 39.541 222.311 39.8809C222 40.2207 221.801 40.707 221.713 41.3398H225.246V41.1377C225.234 40.5752 225.082 40.1416 224.789 39.8369C224.496 39.5264 224.08 39.3711 223.541 39.3711ZM234.536 39.8721C234.19 39.8252 233.886 39.8018 233.622 39.8018C232.661 39.8018 232.031 40.127 231.732 40.7773V47H229.192V37.4902H231.592L231.662 38.624C232.172 37.751 232.878 37.3145 233.78 37.3145C234.062 37.3145 234.325 37.3525 234.571 37.4287L234.536 39.8721ZM239.968 47.1758C238.573 47.1758 237.437 46.748 236.558 45.8926C235.685 45.0371 235.248 43.8975 235.248 42.4736V42.2275C235.248 41.2725 235.433 40.4199 235.802 39.6699C236.171 38.9141 236.692 38.334 237.366 37.9297C238.046 37.5195 238.819 37.3145 239.687 37.3145C240.987 37.3145 242.01 37.7246 242.754 38.5449C243.504 39.3652 243.879 40.5283 243.879 42.0342V43.0713H237.823C237.905 43.6924 238.151 44.1904 238.562 44.5654C238.978 44.9404 239.502 45.1279 240.135 45.1279C241.113 45.1279 241.878 44.7734 242.429 44.0645L243.677 45.4619C243.296 46.001 242.78 46.4229 242.13 46.7275C241.479 47.0264 240.759 47.1758 239.968 47.1758ZM239.678 39.3711C239.174 39.3711 238.764 39.541 238.447 39.8809C238.137 40.2207 237.938 40.707 237.85 41.3398H241.383V41.1377C241.371 40.5752 241.219 40.1416 240.926 39.8369C240.633 39.5264 240.217 39.3711 239.678 39.3711ZM247.667 37.4902L247.746 38.5889C248.426 37.7393 249.337 37.3145 250.479 37.3145C251.487 37.3145 252.237 37.6104 252.729 38.2021C253.222 38.7939 253.474 39.6787 253.485 40.8564V47H250.945V40.918C250.945 40.3789 250.828 39.9893 250.594 39.749C250.359 39.5029 249.97 39.3799 249.425 39.3799C248.71 39.3799 248.174 39.6846 247.816 40.2939V47H245.276V37.4902H247.667ZM259.374 45.1279C259.843 45.1279 260.224 44.999 260.517 44.7412C260.81 44.4834 260.962 44.1406 260.974 43.7129H263.355C263.35 44.3574 263.174 44.9492 262.828 45.4883C262.482 46.0215 262.008 46.4375 261.404 46.7363C260.807 47.0293 260.145 47.1758 259.418 47.1758C258.059 47.1758 256.986 46.7451 256.201 45.8838C255.416 45.0166 255.023 43.8213 255.023 42.2979V42.1309C255.023 40.666 255.413 39.4971 256.192 38.624C256.972 37.751 258.041 37.3145 259.4 37.3145C260.59 37.3145 261.542 37.6543 262.257 38.334C262.978 39.0078 263.344 39.9072 263.355 41.0322H260.974C260.962 40.54 260.81 40.1416 260.517 39.8369C260.224 39.5264 259.837 39.3711 259.356 39.3711C258.765 39.3711 258.316 39.5879 258.012 40.0215C257.713 40.4492 257.563 41.1465 257.563 42.1133V42.377C257.563 43.3555 257.713 44.0586 258.012 44.4863C258.311 44.9141 258.765 45.1279 259.374 45.1279ZM267.486 47H264.938V37.4902H267.486V47ZM264.788 35.0293C264.788 34.6484 264.914 34.335 265.166 34.0889C265.424 33.8428 265.772 33.7197 266.212 33.7197C266.646 33.7197 266.991 33.8428 267.249 34.0889C267.507 34.335 267.636 34.6484 267.636 35.0293C267.636 35.416 267.504 35.7324 267.24 35.9785C266.982 36.2246 266.64 36.3477 266.212 36.3477C265.784 36.3477 265.438 36.2246 265.175 35.9785C264.917 35.7324 264.788 35.416 264.788 35.0293ZM275.098 47C274.98 46.7715 274.896 46.4873 274.843 46.1475C274.228 46.833 273.428 47.1758 272.443 47.1758C271.512 47.1758 270.738 46.9062 270.123 46.3672C269.514 45.8281 269.209 45.1484 269.209 44.3281C269.209 43.3203 269.581 42.5469 270.325 42.0078C271.075 41.4688 272.156 41.1963 273.568 41.1904H274.737V40.6455C274.737 40.2061 274.623 39.8545 274.395 39.5908C274.172 39.3271 273.817 39.1953 273.331 39.1953C272.903 39.1953 272.566 39.2979 272.32 39.5029C272.08 39.708 271.96 39.9893 271.96 40.3467H269.42C269.42 39.7959 269.59 39.2861 269.93 38.8174C270.27 38.3486 270.75 37.9824 271.371 37.7188C271.992 37.4492 272.689 37.3145 273.463 37.3145C274.635 37.3145 275.563 37.6104 276.249 38.2021C276.94 38.7881 277.286 39.6143 277.286 40.6807V44.8027C277.292 45.7051 277.418 46.3877 277.664 46.8506V47H275.098ZM272.997 45.2334C273.372 45.2334 273.718 45.1514 274.034 44.9873C274.351 44.8174 274.585 44.5918 274.737 44.3105V42.6758H273.788C272.517 42.6758 271.84 43.1152 271.758 43.9941L271.749 44.1436C271.749 44.46 271.86 44.7207 272.083 44.9258C272.306 45.1309 272.61 45.2334 272.997 45.2334ZM281.918 47H279.369V33.5H281.918V47ZM288.105 42.1748C288.105 40.6924 288.437 39.5117 289.099 38.6328C289.767 37.7539 290.678 37.3145 291.832 37.3145C292.758 37.3145 293.522 37.6602 294.126 38.3516V33.5H296.675V47H294.381L294.258 45.9893C293.625 46.7803 292.811 47.1758 291.814 47.1758C290.695 47.1758 289.796 46.7363 289.116 45.8574C288.442 44.9727 288.105 43.7451 288.105 42.1748ZM290.646 42.3594C290.646 43.25 290.801 43.9326 291.111 44.4072C291.422 44.8818 291.873 45.1191 292.465 45.1191C293.25 45.1191 293.804 44.7881 294.126 44.126V40.373C293.81 39.7109 293.262 39.3799 292.482 39.3799C291.258 39.3799 290.646 40.373 290.646 42.3594ZM304.154 47C304.037 46.7715 303.952 46.4873 303.899 46.1475C303.284 46.833 302.484 47.1758 301.5 47.1758C300.568 47.1758 299.795 46.9062 299.18 46.3672C298.57 45.8281 298.266 45.1484 298.266 44.3281C298.266 43.3203 298.638 42.5469 299.382 42.0078C300.132 41.4688 301.213 41.1963 302.625 41.1904H303.794V40.6455C303.794 40.2061 303.68 39.8545 303.451 39.5908C303.229 39.3271 302.874 39.1953 302.388 39.1953C301.96 39.1953 301.623 39.2979 301.377 39.5029C301.137 39.708 301.017 39.9893 301.017 40.3467H298.477C298.477 39.7959 298.646 39.2861 298.986 38.8174C299.326 38.3486 299.807 37.9824 300.428 37.7188C301.049 37.4492 301.746 37.3145 302.52 37.3145C303.691 37.3145 304.62 37.6104 305.306 38.2021C305.997 38.7881 306.343 39.6143 306.343 40.6807V44.8027C306.349 45.7051 306.475 46.3877 306.721 46.8506V47H304.154ZM302.054 45.2334C302.429 45.2334 302.774 45.1514 303.091 44.9873C303.407 44.8174 303.642 44.5918 303.794 44.3105V42.6758H302.845C301.573 42.6758 300.896 43.1152 300.814 43.9941L300.806 44.1436C300.806 44.46 300.917 44.7207 301.14 44.9258C301.362 45.1309 301.667 45.2334 302.054 45.2334ZM318.287 47C318.17 46.7715 318.085 46.4873 318.032 46.1475C317.417 46.833 316.617 47.1758 315.633 47.1758C314.701 47.1758 313.928 46.9062 313.312 46.3672C312.703 45.8281 312.398 45.1484 312.398 44.3281C312.398 43.3203 312.771 42.5469 313.515 42.0078C314.265 41.4688 315.346 41.1963 316.758 41.1904H317.927V40.6455C317.927 40.2061 317.812 39.8545 317.584 39.5908C317.361 39.3271 317.007 39.1953 316.521 39.1953C316.093 39.1953 315.756 39.2979 315.51 39.5029C315.27 39.708 315.149 39.9893 315.149 40.3467H312.609C312.609 39.7959 312.779 39.2861 313.119 38.8174C313.459 38.3486 313.939 37.9824 314.561 37.7188C315.182 37.4492 315.879 37.3145 316.652 37.3145C317.824 37.3145 318.753 37.6104 319.438 38.2021C320.13 38.7881 320.476 39.6143 320.476 40.6807V44.8027C320.481 45.7051 320.607 46.3877 320.854 46.8506V47H318.287ZM316.187 45.2334C316.562 45.2334 316.907 45.1514 317.224 44.9873C317.54 44.8174 317.774 44.5918 317.927 44.3105V42.6758H316.978C315.706 42.6758 315.029 43.1152 314.947 43.9941L314.938 44.1436C314.938 44.46 315.05 44.7207 315.272 44.9258C315.495 45.1309 315.8 45.2334 316.187 45.2334ZM325.468 35.1523V37.4902H327.094V39.3535H325.468V44.0996C325.468 44.4512 325.535 44.7031 325.67 44.8555C325.805 45.0078 326.062 45.084 326.443 45.084C326.725 45.084 326.974 45.0635 327.19 45.0225V46.9473C326.692 47.0996 326.18 47.1758 325.652 47.1758C323.871 47.1758 322.963 46.2764 322.928 44.4775V39.3535H321.539V37.4902H322.928V35.1523H325.468ZM334.204 46.0332C333.577 46.7949 332.71 47.1758 331.603 47.1758C330.583 47.1758 329.804 46.8828 329.265 46.2969C328.731 45.7109 328.459 44.8525 328.447 43.7217V37.4902H330.987V43.6338C330.987 44.624 331.438 45.1191 332.341 45.1191C333.202 45.1191 333.794 44.8203 334.116 44.2227V37.4902H336.665V47H334.274L334.204 46.0332ZM344.092 47C343.975 46.7715 343.89 46.4873 343.837 46.1475C343.222 46.833 342.422 47.1758 341.438 47.1758C340.506 47.1758 339.732 46.9062 339.117 46.3672C338.508 45.8281 338.203 45.1484 338.203 44.3281C338.203 43.3203 338.575 42.5469 339.319 42.0078C340.069 41.4688 341.15 41.1963 342.562 41.1904H343.731V40.6455C343.731 40.2061 343.617 39.8545 343.389 39.5908C343.166 39.3271 342.812 39.1953 342.325 39.1953C341.897 39.1953 341.561 39.2979 341.314 39.5029C341.074 39.708 340.954 39.9893 340.954 40.3467H338.414C338.414 39.7959 338.584 39.2861 338.924 38.8174C339.264 38.3486 339.744 37.9824 340.365 37.7188C340.986 37.4492 341.684 37.3145 342.457 37.3145C343.629 37.3145 344.558 37.6104 345.243 38.2021C345.935 38.7881 346.28 39.6143 346.28 40.6807V44.8027C346.286 45.7051 346.412 46.3877 346.658 46.8506V47H344.092ZM341.991 45.2334C342.366 45.2334 342.712 45.1514 343.028 44.9873C343.345 44.8174 343.579 44.5918 343.731 44.3105V42.6758H342.782C341.511 42.6758 340.834 43.1152 340.752 43.9941L340.743 44.1436C340.743 44.46 340.854 44.7207 341.077 44.9258C341.3 45.1309 341.604 45.2334 341.991 45.2334ZM350.912 47H348.363V33.5H350.912V47ZM355.693 47H353.145V37.4902H355.693V47ZM352.995 35.0293C352.995 34.6484 353.121 34.335 353.373 34.0889C353.631 33.8428 353.979 33.7197 354.419 33.7197C354.853 33.7197 355.198 33.8428 355.456 34.0889C355.714 34.335 355.843 34.6484 355.843 35.0293C355.843 35.416 355.711 35.7324 355.447 35.9785C355.189 36.2246 354.847 36.3477 354.419 36.3477C353.991 36.3477 353.646 36.2246 353.382 35.9785C353.124 35.7324 352.995 35.416 352.995 35.0293ZM360.712 44.9521H365.361V47H357.469V45.4531L361.942 39.5469H357.601V37.4902H365.221V38.9932L360.712 44.9521ZM372.463 47C372.346 46.7715 372.261 46.4873 372.208 46.1475C371.593 46.833 370.793 47.1758 369.809 47.1758C368.877 47.1758 368.104 46.9062 367.488 46.3672C366.879 45.8281 366.574 45.1484 366.574 44.3281C366.574 43.3203 366.946 42.5469 367.69 42.0078C368.44 41.4688 369.521 41.1963 370.934 41.1904H372.103V40.6455C372.103 40.2061 371.988 39.8545 371.76 39.5908C371.537 39.3271 371.183 39.1953 370.696 39.1953C370.269 39.1953 369.932 39.2979 369.686 39.5029C369.445 39.708 369.325 39.9893 369.325 40.3467H366.785C366.785 39.7959 366.955 39.2861 367.295 38.8174C367.635 38.3486 368.115 37.9824 368.736 37.7188C369.357 37.4492 370.055 37.3145 370.828 37.3145C372 37.3145 372.929 37.6104 373.614 38.2021C374.306 38.7881 374.651 39.6143 374.651 40.6807V44.8027C374.657 45.7051 374.783 46.3877 375.029 46.8506V47H372.463ZM370.362 45.2334C370.737 45.2334 371.083 45.1514 371.399 44.9873C371.716 44.8174 371.95 44.5918 372.103 44.3105V42.6758H371.153C369.882 42.6758 369.205 43.1152 369.123 43.9941L369.114 44.1436C369.114 44.46 369.226 44.7207 369.448 44.9258C369.671 45.1309 369.976 45.2334 370.362 45.2334ZM380.558 45.1279C381.026 45.1279 381.407 44.999 381.7 44.7412C381.993 44.4834 382.146 44.1406 382.157 43.7129H384.539C384.533 44.3574 384.357 44.9492 384.012 45.4883C383.666 46.0215 383.191 46.4375 382.588 46.7363C381.99 47.0293 381.328 47.1758 380.602 47.1758C379.242 47.1758 378.17 46.7451 377.385 45.8838C376.6 45.0166 376.207 43.8213 376.207 42.2979V42.1309C376.207 40.666 376.597 39.4971 377.376 38.624C378.155 37.751 379.225 37.3145 380.584 37.3145C381.773 37.3145 382.726 37.6543 383.44 38.334C384.161 39.0078 384.527 39.9072 384.539 41.0322H382.157C382.146 40.54 381.993 40.1416 381.7 39.8369C381.407 39.5264 381.021 39.3711 380.54 39.3711C379.948 39.3711 379.5 39.5879 379.195 40.0215C378.896 40.4492 378.747 41.1465 378.747 42.1133V42.377C378.747 43.3555 378.896 44.0586 379.195 44.4863C379.494 44.9141 379.948 45.1279 380.558 45.1279ZM381.48 46.9473L381.384 47.457C382.263 47.6152 382.702 48.1221 382.702 48.9775C382.702 49.6221 382.433 50.1318 381.894 50.5068C381.36 50.8818 380.607 51.0693 379.635 51.0693L379.573 49.6016C380.229 49.6016 380.558 49.3643 380.558 48.8896C380.558 48.6436 380.458 48.4736 380.259 48.3799C380.065 48.292 379.749 48.2334 379.31 48.2041L379.582 46.9473H381.48ZM391.5 47C391.383 46.7715 391.298 46.4873 391.245 46.1475C390.63 46.833 389.83 47.1758 388.846 47.1758C387.914 47.1758 387.141 46.9062 386.525 46.3672C385.916 45.8281 385.611 45.1484 385.611 44.3281C385.611 43.3203 385.983 42.5469 386.728 42.0078C387.478 41.4688 388.559 41.1963 389.971 41.1904H391.14V40.6455C391.14 40.2061 391.025 39.8545 390.797 39.5908C390.574 39.3271 390.22 39.1953 389.733 39.1953C389.306 39.1953 388.969 39.2979 388.723 39.5029C388.482 39.708 388.362 39.9893 388.362 40.3467H385.822C385.822 39.7959 385.992 39.2861 386.332 38.8174C386.672 38.3486 387.152 37.9824 387.773 37.7188C388.395 37.4492 389.092 37.3145 389.865 37.3145C391.037 37.3145 391.966 37.6104 392.651 38.2021C393.343 38.7881 393.688 39.6143 393.688 40.6807V44.8027C393.694 45.7051 393.82 46.3877 394.066 46.8506V47H391.5ZM389.399 45.2334C389.774 45.2334 390.12 45.1514 390.437 44.9873C390.753 44.8174 390.987 44.5918 391.14 44.3105V42.6758H390.19C388.919 42.6758 388.242 43.1152 388.16 43.9941L388.151 44.1436C388.151 44.46 388.263 44.7207 388.485 44.9258C388.708 45.1309 389.013 45.2334 389.399 45.2334ZM393.161 33.6143C393.161 34.2764 392.968 34.833 392.581 35.2842C392.194 35.7295 391.723 35.9521 391.166 35.9521C390.943 35.9521 390.744 35.9287 390.568 35.8818C390.398 35.8291 390.161 35.7207 389.856 35.5566C389.552 35.3926 389.332 35.293 389.197 35.2578C389.062 35.2168 388.916 35.1963 388.758 35.1963C388.553 35.1963 388.377 35.2695 388.23 35.416C388.09 35.5625 388.02 35.7705 388.02 36.04L386.543 35.9521C386.543 35.3018 386.733 34.748 387.114 34.291C387.501 33.834 387.973 33.6055 388.529 33.6055C388.705 33.6055 388.869 33.6289 389.021 33.6758C389.18 33.7168 389.435 33.8223 389.786 33.9922C390.138 34.1621 390.381 34.2646 390.516 34.2998C390.65 34.335 390.791 34.3525 390.938 34.3525C391.143 34.3525 391.318 34.2822 391.465 34.1416C391.617 33.9951 391.693 33.7871 391.693 33.5176L393.161 33.6143ZM395.244 42.1572C395.244 41.2139 395.426 40.373 395.789 39.6348C396.152 38.8965 396.674 38.3252 397.354 37.9209C398.039 37.5166 398.833 37.3145 399.735 37.3145C401.019 37.3145 402.064 37.707 402.873 38.4922C403.688 39.2773 404.142 40.3438 404.235 41.6914L404.253 42.3418C404.253 43.8008 403.846 44.9727 403.031 45.8574C402.217 46.7363 401.124 47.1758 399.753 47.1758C398.382 47.1758 397.286 46.7363 396.466 45.8574C395.651 44.9785 395.244 43.7832 395.244 42.2715V42.1572ZM397.784 42.3418C397.784 43.2441 397.954 43.9355 398.294 44.416C398.634 44.8906 399.12 45.1279 399.753 45.1279C400.368 45.1279 400.849 44.8936 401.194 44.4248C401.54 43.9502 401.713 43.1943 401.713 42.1572C401.713 41.2725 401.54 40.5869 401.194 40.1006C400.849 39.6143 400.362 39.3711 399.735 39.3711C399.114 39.3711 398.634 39.6143 398.294 40.1006C397.954 40.5811 397.784 41.3281 397.784 42.3418ZM246.472 66.1279C246.94 66.1279 247.321 65.999 247.614 65.7412C247.907 65.4834 248.06 65.1406 248.071 64.7129H250.453C250.447 65.3574 250.271 65.9492 249.926 66.4883C249.58 67.0215 249.105 67.4375 248.502 67.7363C247.904 68.0293 247.242 68.1758 246.516 68.1758C245.156 68.1758 244.084 67.7451 243.299 66.8838C242.514 66.0166 242.121 64.8213 242.121 63.2979V63.1309C242.121 61.666 242.511 60.4971 243.29 59.624C244.069 58.751 245.139 58.3145 246.498 58.3145C247.688 58.3145 248.64 58.6543 249.354 59.334C250.075 60.0078 250.441 60.9072 250.453 62.0322H248.071C248.06 61.54 247.907 61.1416 247.614 60.8369C247.321 60.5264 246.935 60.3711 246.454 60.3711C245.862 60.3711 245.414 60.5879 245.109 61.0215C244.811 61.4492 244.661 62.1465 244.661 63.1133V63.377C244.661 64.3555 244.811 65.0586 245.109 65.4863C245.408 65.9141 245.862 66.1279 246.472 66.1279ZM257.414 68C257.297 67.7715 257.212 67.4873 257.159 67.1475C256.544 67.833 255.744 68.1758 254.76 68.1758C253.828 68.1758 253.055 67.9062 252.439 67.3672C251.83 66.8281 251.525 66.1484 251.525 65.3281C251.525 64.3203 251.897 63.5469 252.642 63.0078C253.392 62.4688 254.473 62.1963 255.885 62.1904H257.054V61.6455C257.054 61.2061 256.939 60.8545 256.711 60.5908C256.488 60.3271 256.134 60.1953 255.647 60.1953C255.22 60.1953 254.883 60.2979 254.637 60.5029C254.396 60.708 254.276 60.9893 254.276 61.3467H251.736C251.736 60.7959 251.906 60.2861 252.246 59.8174C252.586 59.3486 253.066 58.9824 253.688 58.7188C254.309 58.4492 255.006 58.3145 255.779 58.3145C256.951 58.3145 257.88 58.6104 258.565 59.2021C259.257 59.7881 259.603 60.6143 259.603 61.6807V65.8027C259.608 66.7051 259.734 67.3877 259.98 67.8506V68H257.414ZM255.313 66.2334C255.688 66.2334 256.034 66.1514 256.351 65.9873C256.667 65.8174 256.901 65.5918 257.054 65.3105V63.6758H256.104C254.833 63.6758 254.156 64.1152 254.074 64.9941L254.065 65.1436C254.065 65.46 254.177 65.7207 254.399 65.9258C254.622 66.1309 254.927 66.2334 255.313 66.2334ZM261.158 63.1748C261.158 61.6924 261.489 60.5117 262.151 59.6328C262.819 58.7539 263.73 58.3145 264.885 58.3145C265.811 58.3145 266.575 58.6602 267.179 59.3516V54.5H269.728V68H267.434L267.311 66.9893C266.678 67.7803 265.863 68.1758 264.867 68.1758C263.748 68.1758 262.849 67.7363 262.169 66.8574C261.495 65.9727 261.158 64.7451 261.158 63.1748ZM263.698 63.3594C263.698 64.25 263.854 64.9326 264.164 65.4072C264.475 65.8818 264.926 66.1191 265.518 66.1191C266.303 66.1191 266.856 65.7881 267.179 65.126V61.373C266.862 60.7109 266.314 60.3799 265.535 60.3799C264.311 60.3799 263.698 61.373 263.698 63.3594ZM277.207 68C277.09 67.7715 277.005 67.4873 276.952 67.1475C276.337 67.833 275.537 68.1758 274.553 68.1758C273.621 68.1758 272.848 67.9062 272.232 67.3672C271.623 66.8281 271.318 66.1484 271.318 65.3281C271.318 64.3203 271.69 63.5469 272.435 63.0078C273.185 62.4688 274.266 62.1963 275.678 62.1904H276.847V61.6455C276.847 61.2061 276.732 60.8545 276.504 60.5908C276.281 60.3271 275.927 60.1953 275.44 60.1953C275.013 60.1953 274.676 60.2979 274.43 60.5029C274.189 60.708 274.069 60.9893 274.069 61.3467H271.529C271.529 60.7959 271.699 60.2861 272.039 59.8174C272.379 59.3486 272.859 58.9824 273.48 58.7188C274.102 58.4492 274.799 58.3145 275.572 58.3145C276.744 58.3145 277.673 58.6104 278.358 59.2021C279.05 59.7881 279.396 60.6143 279.396 61.6807V65.8027C279.401 66.7051 279.527 67.3877 279.773 67.8506V68H277.207ZM275.106 66.2334C275.481 66.2334 275.827 66.1514 276.144 65.9873C276.46 65.8174 276.694 65.5918 276.847 65.3105V63.6758H275.897C274.626 63.6758 273.949 64.1152 273.867 64.9941L273.858 65.1436C273.858 65.46 273.97 65.7207 274.192 65.9258C274.415 66.1309 274.72 66.2334 275.106 66.2334ZM286.497 65.3721C286.497 65.0615 286.342 64.8184 286.031 64.6426C285.727 64.4609 285.234 64.2998 284.555 64.1592C282.293 63.6846 281.162 62.7236 281.162 61.2764C281.162 60.4326 281.511 59.7295 282.208 59.167C282.911 58.5986 283.828 58.3145 284.959 58.3145C286.166 58.3145 287.13 58.5986 287.851 59.167C288.577 59.7354 288.94 60.4736 288.94 61.3818H286.4C286.4 61.0186 286.283 60.7197 286.049 60.4854C285.814 60.2451 285.448 60.125 284.95 60.125C284.522 60.125 284.191 60.2217 283.957 60.415C283.723 60.6084 283.605 60.8545 283.605 61.1533C283.605 61.4346 283.737 61.6631 284.001 61.8389C284.271 62.0088 284.722 62.1582 285.354 62.2871C285.987 62.4102 286.521 62.5508 286.954 62.709C288.296 63.2012 288.967 64.0537 288.967 65.2666C288.967 66.1338 288.595 66.8369 287.851 67.376C287.106 67.9092 286.146 68.1758 284.968 68.1758C284.171 68.1758 283.462 68.0352 282.841 67.7539C282.226 67.4668 281.742 67.0771 281.391 66.585C281.039 66.0869 280.863 65.5508 280.863 64.9766H283.271C283.295 65.4277 283.462 65.7734 283.772 66.0137C284.083 66.2539 284.499 66.374 285.021 66.374C285.507 66.374 285.873 66.2832 286.119 66.1016C286.371 65.9141 286.497 65.6709 286.497 65.3721ZM293.651 56.1523V58.4902H295.277V60.3535H293.651V65.0996C293.651 65.4512 293.719 65.7031 293.854 65.8555C293.988 66.0078 294.246 66.084 294.627 66.084C294.908 66.084 295.157 66.0635 295.374 66.0225V67.9473C294.876 68.0996 294.363 68.1758 293.836 68.1758C292.055 68.1758 291.146 67.2764 291.111 65.4775V60.3535H289.723V58.4902H291.111V56.1523H293.651ZM302.036 60.8721C301.69 60.8252 301.386 60.8018 301.122 60.8018C300.161 60.8018 299.531 61.127 299.232 61.7773V68H296.692V58.4902H299.092L299.162 59.624C299.672 58.751 300.378 58.3145 301.28 58.3145C301.562 58.3145 301.825 58.3525 302.071 58.4287L302.036 60.8721ZM308.514 68C308.396 67.7715 308.312 67.4873 308.259 67.1475C307.644 67.833 306.844 68.1758 305.859 68.1758C304.928 68.1758 304.154 67.9062 303.539 67.3672C302.93 66.8281 302.625 66.1484 302.625 65.3281C302.625 64.3203 302.997 63.5469 303.741 63.0078C304.491 62.4688 305.572 62.1963 306.984 62.1904H308.153V61.6455C308.153 61.2061 308.039 60.8545 307.811 60.5908C307.588 60.3271 307.233 60.1953 306.747 60.1953C306.319 60.1953 305.982 60.2979 305.736 60.5029C305.496 60.708 305.376 60.9893 305.376 61.3467H302.836C302.836 60.7959 303.006 60.2861 303.346 59.8174C303.686 59.3486 304.166 58.9824 304.787 58.7188C305.408 58.4492 306.105 58.3145 306.879 58.3145C308.051 58.3145 308.979 58.6104 309.665 59.2021C310.356 59.7881 310.702 60.6143 310.702 61.6807V65.8027C310.708 66.7051 310.834 67.3877 311.08 67.8506V68H308.514ZM306.413 66.2334C306.788 66.2334 307.134 66.1514 307.45 65.9873C307.767 65.8174 308.001 65.5918 308.153 65.3105V63.6758H307.204C305.933 63.6758 305.256 64.1152 305.174 64.9941L305.165 65.1436C305.165 65.46 305.276 65.7207 305.499 65.9258C305.722 66.1309 306.026 66.2334 306.413 66.2334ZM315.334 68H312.785V54.5H315.334V68Z" fill="#196CBD"/>
</svg>
